<svg xmlns="http://www.w3.org/2000/svg" viewBox="0 0 133.86 133.86"><defs><style>.cls-1,.cls-3{fill:none;stroke:#e7007c;stroke-miterlimit:10;}.cls-1{stroke-width:1.5px;}.cls-2{fill:#e7007c;}</style></defs><title>btn-contact-us</title><g id="Layer_1" data-name="Layer 1"><path class="cls-1" d="M186.91,120.79c0,2.36-8.11,4.24-8.36,6.52s7.22,6,6.71,8.21-8.84,2.31-9.6,4.5,5.71,7.41,4.7,9.5-9.13.27-10.36,2.23,3.92,8.49,2.47,10.31-9-1.77-10.61-.13,1.95,9.15.13,10.61-8.34-3.72-10.31-2.48-.13,9.36-2.23,10.37-7.3-5.48-9.5-4.71-2.21,9.09-4.5,9.61-5.87-7-8.2-6.72-4.17,8.36-6.52,8.36-4.24-8.1-6.52-8.36-6,7.23-8.21,6.72-2.31-8.84-4.5-9.61-7.41,5.72-9.5,4.71-.27-9.13-2.23-10.37-8.5,3.92-10.31,2.47,1.77-8.95.13-10.6-9.15,1.95-10.61.13,3.72-8.34,2.47-10.31-9.35-.13-10.36-2.24,5.48-7.29,4.71-9.5-9.09-2.21-9.61-4.49,7-5.87,6.72-8.21-8.36-4.16-8.36-6.52,8.1-4.23,8.36-6.52-7.23-6-6.72-8.2,8.84-2.32,9.61-4.5-5.72-7.42-4.71-9.5,9.13-.27,10.37-2.23S67.54,81.34,69,79.53s9,1.77,10.6.12-2-9.15-.13-10.6,8.34,3.71,10.31,2.47S89.9,62.17,92,61.16s7.3,5.47,9.51,4.7,2.21-9.08,4.49-9.6,5.87,7,8.21,6.71,4.16-8.36,6.52-8.36S125,62.72,127.25,63s6-7.22,8.2-6.71,2.32,8.84,4.5,9.6,7.41-5.71,9.5-4.7.27,9.13,2.23,10.36,8.5-3.92,10.31-2.47-1.77,9-.12,10.6,9.15-1.94,10.6-.12-3.71,8.34-2.47,10.31,9.35.13,10.36,2.23-5.47,7.3-4.7,9.5,9.08,2.21,9.6,4.5-7,5.87-6.71,8.2S186.91,118.44,186.91,120.79Z" transform="translate(-53.8 -53.86)"/><path class="cls-2" d="M131.42,79a2.84,2.84,0,0,1-.72-1.47,4,4,0,0,1,.16-1.88h0a4.14,4.14,0,0,1,.9-1.66,2.91,2.91,0,0,1,1.4-.86,3.11,3.11,0,0,1,1.73.05,3.28,3.28,0,0,1,1.47.88,2.83,2.83,0,0,1,.7,1.44,3.94,3.94,0,0,1-.15,1.81l-.14.49-5.27-1.56.3-1,4.54,1.35-1,.72.18-.58a2.81,2.81,0,0,0,.12-1.11,1.55,1.55,0,0,0-.35-.79,1.47,1.47,0,0,0-.73-.44,1.58,1.58,0,0,0-.86,0,1.63,1.63,0,0,0-.74.48,2.66,2.66,0,0,0-.5,1l-.18.58a2.55,2.55,0,0,0-.1,1.07,1.56,1.56,0,0,0,.37.8,1.66,1.66,0,0,0,.81.49,1.72,1.72,0,0,0,.7.07,1.41,1.41,0,0,0,.56-.16,1.12,1.12,0,0,0,.38-.33l0,0,1.42.42,0,.06a2.32,2.32,0,0,1-.5.64,2.49,2.49,0,0,1-.77.47,2.76,2.76,0,0,1-1,.2,3.51,3.51,0,0,1-1.17-.16A3.4,3.4,0,0,1,131.42,79Z" transform="translate(-53.8 -53.86)"/><path class="cls-2" d="M141,75.45l1.4.73-.49.93,0,0a2.15,2.15,0,0,1,1.09-.42,2.36,2.36,0,0,1,1.29.31,2.16,2.16,0,0,1,1.21,1.39,2.65,2.65,0,0,1-.31,1.91l-2,3.86-1.4-.73,1.86-3.58a1.64,1.64,0,0,0,.21-1.14,1.23,1.23,0,0,0-.71-.81,1.45,1.45,0,0,0-.79-.18,1.39,1.39,0,0,0-.73.27,1.88,1.88,0,0,0-.56.67l-1.8,3.47-1.39-.73Z" transform="translate(-53.8 -53.86)"/><path class="cls-2" d="M146.06,85.85a2,2,0,0,1,.49-1.51l2.2-3-.76-.57.73-1,.76.57,1-1.37,1.29,1-1,1.37,1,.75-.73,1-1-.75-2.13,2.86a.84.84,0,0,0-.22.67,1.3,1.3,0,0,0,.58.66l.15.09-.71.95c-.09,0-.18-.1-.3-.17s-.24-.15-.37-.25A2.34,2.34,0,0,1,146.06,85.85Z" transform="translate(-53.8 -53.86)"/><path class="cls-2" d="M154.17,84.18l1.13,1.09-.81.83,0,0a1.79,1.79,0,0,1,1.06-.3,1.46,1.46,0,0,1,.95.45,1.8,1.8,0,0,1,.19.2l.13.19-1,1a1.45,1.45,0,0,0-.15-.23,3.15,3.15,0,0,0-.25-.28,1.57,1.57,0,0,0-.68-.41,1.19,1.19,0,0,0-.72,0,1.78,1.78,0,0,0-.72.49l-2.72,2.8L149.48,89Z" transform="translate(-53.8 -53.86)"/><path class="cls-2" d="M154.24,93.59a2.84,2.84,0,0,1,.3-1.61,4,4,0,0,1,1.24-1.42h0a4.08,4.08,0,0,1,1.71-.8,3,3,0,0,1,1.65.14A3.12,3.12,0,0,1,160.5,91a3.2,3.2,0,0,1,.66,1.58,2.89,2.89,0,0,1-.3,1.57,4,4,0,0,1-1.2,1.37l-.41.3L156,91.4l.84-.63,2.84,3.8-1.24,0,.49-.37a2.57,2.57,0,0,0,.75-.82,1.37,1.37,0,0,0,.19-.84,1.45,1.45,0,0,0-.31-.79,1.56,1.56,0,0,0-.68-.53,1.53,1.53,0,0,0-.88-.06,2.54,2.54,0,0,0-1,.49l-.48.36a2.43,2.43,0,0,0-.72.8,1.49,1.49,0,0,0-.18.87,1.73,1.73,0,0,0,.36.86,1.76,1.76,0,0,0,.51.48,1.42,1.42,0,0,0,.55.2,1,1,0,0,0,.5,0h.05l.88,1.18-.06,0a2.48,2.48,0,0,1-1.69.13,2.79,2.79,0,0,1-.91-.43,3.47,3.47,0,0,1-.84-.83A3.32,3.32,0,0,1,154.24,93.59Z" transform="translate(-53.8 -53.86)"/><path class="cls-2" d="M160.42,103.88a2.92,2.92,0,0,1,.73-1.48,4.36,4.36,0,0,1,1.59-1h0a4.06,4.06,0,0,1,1.86-.29,2.92,2.92,0,0,1,1.54.58,3.45,3.45,0,0,1,1.21,3.11,2.87,2.87,0,0,1-.72,1.43,3.9,3.9,0,0,1-1.53,1l-.47.18-2-5.14,1-.37,1.69,4.43-1.19-.36.57-.22a2.61,2.61,0,0,0,1-.58,1.45,1.45,0,0,0,.42-.76,1.54,1.54,0,0,0-.09-.84,1.49,1.49,0,0,0-1.34-1,2.65,2.65,0,0,0-1.08.2L163,103a2.63,2.63,0,0,0-.91.57,1.51,1.51,0,0,0-.41.79,1.71,1.71,0,0,0,.11.93,1.68,1.68,0,0,0,.36.6,1.55,1.55,0,0,0,.48.35,1.26,1.26,0,0,0,.49.1h.05l.52,1.38h-.07a2.44,2.44,0,0,1-1.65-.33,2.76,2.76,0,0,1-.76-.66,3.51,3.51,0,0,1-.58-1A3.4,3.4,0,0,1,160.42,103.88Z" transform="translate(-53.8 -53.86)"/><path class="cls-2" d="M169.22,109.45l.21,1.56-1.07.15v0a1.79,1.79,0,0,1,1,.59,2,2,0,0,1,.49,1.1,2.21,2.21,0,0,1,0,.86,1.7,1.7,0,0,1-1.05,1.17v0a2,2,0,0,1,.78.38,2,2,0,0,1,.56.65,2.3,2.3,0,0,1,.29.87,2.17,2.17,0,0,1-.13,1.18,2,2,0,0,1-.68.87,2.33,2.33,0,0,1-1.13.43l-4.58.62-.21-1.57,4.19-.56a1.39,1.39,0,0,0,.92-.44,1.14,1.14,0,0,0,.22-.93,1.23,1.23,0,0,0-.26-.64,1.18,1.18,0,0,0-.54-.39,1.6,1.6,0,0,0-.73-.06l-4.13.55-.2-1.52,4.27-.57a1.24,1.24,0,0,0,.85-.44,1.15,1.15,0,0,0,.21-.91,1.29,1.29,0,0,0-.28-.64,1.21,1.21,0,0,0-.55-.39,1.56,1.56,0,0,0-.75-.07l-4.08.55-.21-1.56Z" transform="translate(-53.8 -53.86)"/><path class="cls-2" d="M163.38,127.35a2.88,2.88,0,0,1,1.4-.87,3.94,3.94,0,0,1,1.91,0h0a4,4,0,0,1,1.74.74,2.83,2.83,0,0,1,1,1.34,3.29,3.29,0,0,1,.1,1.75,3.17,3.17,0,0,1-.63,1.44,2.66,2.66,0,0,1-1.07.83,2.57,2.57,0,0,1-1.29.18h0l.28-1.46h0a1.56,1.56,0,0,0,.91-.29,1.37,1.37,0,0,0,.52-.91,1.41,1.41,0,0,0-.1-.91,1.7,1.7,0,0,0-.64-.7,3.07,3.07,0,0,0-1.13-.43h0a3.1,3.1,0,0,0-1.21,0,1.66,1.66,0,0,0-.86.42,1.45,1.45,0,0,0-.42.8,1.38,1.38,0,0,0,.14,1,1.45,1.45,0,0,0,.75.64l.05,0-.28,1.46h0a2.56,2.56,0,0,1-1.15-.67,2.65,2.65,0,0,1-.68-1.17,3.14,3.14,0,0,1,0-1.53A3.37,3.37,0,0,1,163.38,127.35Z" transform="translate(-53.8 -53.86)"/><path class="cls-2" d="M161.43,135.12a3,3,0,0,1,1.54-.6,4.06,4.06,0,0,1,1.88.31h0a4.09,4.09,0,0,1,1.58,1.07,2.89,2.89,0,0,1,.7,1.5,3.68,3.68,0,0,1-1.27,3.18,2.88,2.88,0,0,1-1.54.61,3.94,3.94,0,0,1-1.88-.31h0a4.13,4.13,0,0,1-1.6-1.07,2.89,2.89,0,0,1-.7-1.5,3.76,3.76,0,0,1,1.28-3.2Zm.07,2.83a1.68,1.68,0,0,0,.5.81,3.54,3.54,0,0,0,1,.63h0a3.13,3.13,0,0,0,1.19.26,1.65,1.65,0,0,0,.91-.26,1.5,1.5,0,0,0,.57-.71,1.47,1.47,0,0,0,.07-.9,1.62,1.62,0,0,0-.49-.81,3,3,0,0,0-1-.64h0a3.13,3.13,0,0,0-1.19-.26,1.78,1.78,0,0,0-.92.26,1.52,1.52,0,0,0-.57.72A1.49,1.49,0,0,0,161.5,138Z" transform="translate(-53.8 -53.86)"/><path class="cls-2" d="M164,145.11l-.85,1.32-.88-.57,0,0a2.06,2.06,0,0,1,.32,1.13,2.45,2.45,0,0,1-.42,1.25,2.21,2.21,0,0,1-1.5,1.08,2.62,2.62,0,0,1-1.87-.48l-3.67-2.36.86-1.33,3.39,2.18a1.66,1.66,0,0,0,1.12.32,1.25,1.25,0,0,0,.87-.64,1.43,1.43,0,0,0,.25-.77,1.34,1.34,0,0,0-.2-.75,1.78,1.78,0,0,0-.61-.61l-3.29-2.12.85-1.32Z" transform="translate(-53.8 -53.86)"/><path class="cls-2" d="M153.17,149.27a1.92,1.92,0,0,1,1.45.62l2.74,2.47.64-.7.9.81-.63.71,1.27,1.14-1.08,1.19-1.27-1.14-.83.93-.91-.82.84-.93-2.65-2.38a.87.87,0,0,0-.65-.29,1,1,0,0,0-.57.35,1.55,1.55,0,0,0-.13.17,1.34,1.34,0,0,0-.11.14l-.88-.8.2-.27a2.82,2.82,0,0,1,.29-.35A2.24,2.24,0,0,1,153.17,149.27Z" transform="translate(-53.8 -53.86)"/><path class="cls-2" d="M149.33,152.94a1.93,1.93,0,0,1,1.07.06,1.9,1.9,0,0,1,.89.64h0a1.71,1.71,0,0,1,.38,1.52,3.35,3.35,0,0,1-1.1,1.65l-1.9,1.74-.66-.81,1.74-1.59a1.72,1.72,0,0,0,.52-.78.8.8,0,0,0-.16-.7h0a.75.75,0,0,0-.65-.31,1.36,1.36,0,0,0-.8.34,1.71,1.71,0,0,0-.52.66,1.37,1.37,0,0,0-.12.74,1.24,1.24,0,0,0,.28.69l1.27,1.57a1,1,0,0,0,.76.42,1.26,1.26,0,0,0,.9-.35,1.52,1.52,0,0,0,.55-.75,1,1,0,0,0-.06-.73l0-.06,1.14-.92,0,.07a2.11,2.11,0,0,1,.36,1.08,2.39,2.39,0,0,1-.28,1.19,4,4,0,0,1-2.28,1.84,2.37,2.37,0,0,1-1.24,0,2.11,2.11,0,0,1-1-.71l-2.91-3.59,1.22-1,.66.81,0,0a2,2,0,0,1,0-.78,2.16,2.16,0,0,1,.29-.75,2.37,2.37,0,0,1,.56-.63A2.53,2.53,0,0,1,149.33,152.94Z" transform="translate(-53.8 -53.86)"/><path class="cls-2" d="M142.8,157.88a1.91,1.91,0,0,1,1.19,1.05l1.84,3.19.83-.47.6,1.06-.82.47.85,1.48-1.39.8-.85-1.48-1.09.62-.61-1,1.09-.63-1.78-3.08c-.16-.29-.33-.45-.52-.48a1,1,0,0,0-.66.16l-.18.11-.14.1-.59-1,.28-.2a3,3,0,0,1,.37-.24A2.36,2.36,0,0,1,142.8,157.88Z" transform="translate(-53.8 -53.86)"/><path class="cls-2" d="M137.68,160.47a2.86,2.86,0,0,1,1.49.72,4.1,4.1,0,0,1,1.05,1.61h0a4.05,4.05,0,0,1,.29,1.89,3,3,0,0,1-.63,1.53,3.72,3.72,0,0,1-3.21,1.22,2.93,2.93,0,0,1-1.49-.72,3.87,3.87,0,0,1-1-1.6h0a4,4,0,0,1-.29-1.9,2.83,2.83,0,0,1,.63-1.52,3.72,3.72,0,0,1,3.21-1.23Zm-2,2a1.57,1.57,0,0,0-.26.91,3,3,0,0,0,.24,1.19v0a3.15,3.15,0,0,0,.62,1,1.61,1.61,0,0,0,.8.5A1.51,1.51,0,0,0,138,166a1.41,1.41,0,0,0,.71-.55,1.66,1.66,0,0,0,.27-.91,3,3,0,0,0-.23-1.19h0a3.12,3.12,0,0,0-.63-1.05,1.61,1.61,0,0,0-.8-.5,1.5,1.5,0,0,0-.91.06A1.42,1.42,0,0,0,135.66,162.44Z" transform="translate(-53.8 -53.86)"/><path class="cls-2" d="M123.82,168.94l1.91,1-.35.7-2-.83Zm1.49,1,.48.62L124.11,172l-.61-.76Zm.66.26-.82.08-.33-2.16,1.05-.1Zm-.72,2.27-.1-2.19.82-.08.32,2.17Zm.54-1.92-.47-.61,1.67-1.36.62.77Zm1.5,1-1.91-1,.35-.7,2,.83Z" transform="translate(-53.8 -53.86)"/><path class="cls-2" d="M115.19,163.59a2.86,2.86,0,0,1,.92,1.38,4.17,4.17,0,0,1,.08,1.91h0a4,4,0,0,1-.7,1.76,2.93,2.93,0,0,1-1.31,1,3.28,3.28,0,0,1-1.75.14,3.33,3.33,0,0,1-1.46-.59,2.59,2.59,0,0,1-.85-1.05,2.49,2.49,0,0,1-.22-1.29v0l1.47.24v.06a1.56,1.56,0,0,0,.32.9,1.41,1.41,0,0,0,.92.5,1.51,1.51,0,0,0,.9-.12,1.81,1.81,0,0,0,.69-.66,3.26,3.26,0,0,0,.4-1.14h0a3,3,0,0,0,0-1.21,1.69,1.69,0,0,0-.44-.84,1.42,1.42,0,0,0-.81-.4,1.38,1.38,0,0,0-1,.16,1.5,1.5,0,0,0-.61.76l0,.06-1.48-.25,0,0A2.58,2.58,0,0,1,112,163a3.19,3.19,0,0,1,1.52-.08A3.33,3.33,0,0,1,115.19,163.59Z" transform="translate(-53.8 -53.86)"/><path class="cls-2" d="M106.46,168.28l-1.49-.5.37-1.1h0a1.88,1.88,0,0,1-.84.73,1.48,1.48,0,0,1-1,0l-.26-.11-.2-.11.46-1.35a1.36,1.36,0,0,0,.23.14,2.13,2.13,0,0,0,.35.14,1.58,1.58,0,0,0,.79.08,1.23,1.23,0,0,0,.64-.35,1.93,1.93,0,0,0,.43-.75l1.24-3.7,1.5.5Z" transform="translate(-53.8 -53.86)"/><path class="cls-2" d="M99.71,167a.84.84,0,0,1,0,.66.88.88,0,0,1-.49.44.87.87,0,0,1-.67,0,.89.89,0,0,1-.47-.5.87.87,0,0,1,1.2-1.07A.9.9,0,0,1,99.71,167Zm.66-1-1.43-.67,2.86-6.09,1.43.67Z" transform="translate(-53.8 -53.86)"/><path class="cls-2" d="M96.29,160l0,4-1.49-1,.16-2.72h0l-2.41,1.24L91,160.6,94.66,159l.06-4,1.44.94L96,158.7l0,0,2.48-1.27,1.42.93Z" transform="translate(-53.8 -53.86)"/><path class="cls-2" d="M89.69,155,89,159l-1.3-1.22.64-2.65,0,0-2.6.79-1.26-1.18,3.86-.94.78-3.94L90.3,151l-.64,2.72,0,0,2.66-.8,1.23,1.16Z" transform="translate(-53.8 -53.86)"/><path class="cls-2" d="M81.48,153a.78.78,0,0,1-.32.57.81.81,0,0,1-.63.19.89.89,0,0,1-.59-.33.85.85,0,0,1-.19-.65.82.82,0,0,1,.32-.58.79.79,0,0,1,.63-.18.89.89,0,0,1,.59.33A.85.85,0,0,1,81.48,153Zm1.06-.64-1-1.23L86.8,147l1,1.24Z" transform="translate(-53.8 -53.86)"/><path class="cls-2" d="M84.38,144.07a2.81,2.81,0,0,1-.48,1.57,4.1,4.1,0,0,1-1.39,1.27h0a4.09,4.09,0,0,1-1.79.6A2.93,2.93,0,0,1,77.87,146a3.15,3.15,0,0,1-.48-1.64,2.82,2.82,0,0,1,.48-1.53,4,4,0,0,1,1.34-1.23l.44-.25,2.78,4.74-.91.53-2.4-4.09,1.23.16-.52.31a2.46,2.46,0,0,0-.84.73,1.46,1.46,0,0,0-.29.81,1.52,1.52,0,0,0,1.71,1.58,2.44,2.44,0,0,0,1-.37l.53-.31a2.42,2.42,0,0,0,.8-.7,1.51,1.51,0,0,0,.28-.85,1.63,1.63,0,0,0-.26-.9,1.61,1.61,0,0,0-.46-.53,1.53,1.53,0,0,0-.52-.27,1.06,1.06,0,0,0-.5,0h0l-.74-1.27.06,0a2.64,2.64,0,0,1,.81-.12,2.56,2.56,0,0,1,.88.18,2.83,2.83,0,0,1,.86.53,3.51,3.51,0,0,1,.74.92A3.37,3.37,0,0,1,84.38,144.07Z" transform="translate(-53.8 -53.86)"/><path class="cls-2" d="M81.39,134.67a4.81,4.81,0,0,1-.49,2,4.67,4.67,0,0,1-1.27,1.58,6.1,6.1,0,0,1-2,1.05h0a5.82,5.82,0,0,1-2.19.26,4.9,4.9,0,0,1-3.47-1.87,6,6,0,0,1-1-1.95,5.7,5.7,0,0,1-.2-2.72,4.35,4.35,0,0,1,1.09-2.22,4.94,4.94,0,0,1,2.28-1.38h0a4.85,4.85,0,0,1,1.76-.24,2.42,2.42,0,0,1,1.26.42,1.76,1.76,0,0,1,.69,1,1.71,1.71,0,0,1,0,1.05,1.79,1.79,0,0,1-.56.79l-.08.07,0,0a1.75,1.75,0,0,1,1,.42,2,2,0,0,1,.58.94,1.94,1.94,0,0,1,0,1.19,2.27,2.27,0,0,1-.69,1,3.46,3.46,0,0,1-1.28.68h0a3.27,3.27,0,0,1-1.4.13,2.32,2.32,0,0,1-1.11-.47,2,2,0,0,1-.65-1,1.69,1.69,0,0,1,0-1,1.44,1.44,0,0,1,.47-.77l0,0-.75.23L73,132.72l2.88-.87a1.64,1.64,0,0,0,.81-.47.63.63,0,0,0,.14-.61.83.83,0,0,0-.74-.53,3.7,3.7,0,0,0-1.61.2h0a4.16,4.16,0,0,0-1.86,1.09,3.44,3.44,0,0,0-.89,1.76,4.64,4.64,0,0,0,.17,2.19,4.39,4.39,0,0,0,.79,1.52,3.86,3.86,0,0,0,1.24,1,4,4,0,0,0,1.57.43,5.14,5.14,0,0,0,1.79-.22h0a4.62,4.62,0,0,0,2.1-1.23,3.76,3.76,0,0,0,1-1.94,5.06,5.06,0,0,0-.19-2.35,9.11,9.11,0,0,0-.42-1.11,4.87,4.87,0,0,0-.51-.85l.94-.28a6.47,6.47,0,0,1,1,2A6.25,6.25,0,0,1,81.39,134.67ZM77,133.15a2,2,0,0,0-1.24,0h0a1.85,1.85,0,0,0-1,.66,1.1,1.1,0,0,0-.15,1,1.07,1.07,0,0,0,.37.56,1.2,1.2,0,0,0,.64.23,2.31,2.31,0,0,0,.87-.11h0a2.22,2.22,0,0,0,.8-.4,1.22,1.22,0,0,0,.42-.55,1.06,1.06,0,0,0,0-.66A1.1,1.1,0,0,0,77,133.15Z" transform="translate(-53.8 -53.86)"/><path class="cls-2" d="M80.13,124.46a2.69,2.69,0,0,1-.62,1.09,1.84,1.84,0,0,1-.92.53l-.06,0-.08-1.55,0,0A1.08,1.08,0,0,0,79,124a2.25,2.25,0,0,0,.14-1,1.64,1.64,0,0,0-.44-1.16,1.32,1.32,0,0,0-1-.36l-1,0v0a1.88,1.88,0,0,1,.65.46,2.33,2.33,0,0,1,.44.69,2.57,2.57,0,0,1,.19.89,2.5,2.5,0,0,1-.34,1.48,2.55,2.55,0,0,1-1.12,1,4.48,4.48,0,0,1-1.78.43h0a4.61,4.61,0,0,1-1.85-.25,2.75,2.75,0,0,1-1.23-.92,2.6,2.6,0,0,1-.49-1.45,2.26,2.26,0,0,1,.53-1.61,2.26,2.26,0,0,1,.65-.53v0l-1.14.05-.08-1.57,6.53-.33a2.31,2.31,0,0,1,1.36.32,2.42,2.42,0,0,1,.94,1,4,4,0,0,1,.4,1.67A4.49,4.49,0,0,1,80.13,124.46Zm-3.75-2.18a1.63,1.63,0,0,0-.77-.54,2.92,2.92,0,0,0-1.14-.15h0a2.76,2.76,0,0,0-1.12.27,1.71,1.71,0,0,0-.71.61,1.41,1.41,0,0,0-.21.87,1.5,1.5,0,0,0,.3.87,1.68,1.68,0,0,0,.77.54,2.71,2.71,0,0,0,1.14.14h0a2.84,2.84,0,0,0,1.12-.26,1.59,1.59,0,0,0,.71-.61,1.44,1.44,0,0,0,.22-.9A1.41,1.41,0,0,0,76.38,122.28Z" transform="translate(-53.8 -53.86)"/><path class="cls-2" d="M71.13,116.27l.3-1.54,1.06.2v0a1.76,1.76,0,0,1-.73-.86,1.93,1.93,0,0,1-.11-1.2A2.19,2.19,0,0,1,72,112a1.79,1.79,0,0,1,1.37-.78v0a2,2,0,0,1-.62-.6,2.19,2.19,0,0,1-.33-.8,2.47,2.47,0,0,1,.5-2,2.05,2.05,0,0,1,.92-.6,2.33,2.33,0,0,1,1.21,0l4.53.86-.29,1.56-4.16-.8a1.41,1.41,0,0,0-1,.13,1.18,1.18,0,0,0-.51.81,1.32,1.32,0,0,0,0,.69A1.29,1.29,0,0,0,74,111a1.61,1.61,0,0,0,.68.29l4.08.78-.29,1.51-4.23-.81a1.22,1.22,0,0,0-.94.15,1.15,1.15,0,0,0-.49.79,1.18,1.18,0,0,0,.06.7,1.26,1.26,0,0,0,.4.54,1.56,1.56,0,0,0,.69.31L78,116l-.3,1.55Z" transform="translate(-53.8 -53.86)"/><path class="cls-2" d="M80.65,105.16a2,2,0,0,1-1,.44,2.05,2.05,0,0,1-1.08-.17h0a1.71,1.71,0,0,1-1-1.19,3.35,3.35,0,0,1,.23-2l.9-2.42.95.43-.82,2.2a1.71,1.71,0,0,0-.11.94.8.8,0,0,0,.46.54h0a.76.76,0,0,0,.72,0,1.36,1.36,0,0,0,.56-.67,1.74,1.74,0,0,0,.16-.82,1.37,1.37,0,0,0-.23-.72,1.18,1.18,0,0,0-.57-.48L78,100.43a1,1,0,0,0-.87,0,1.28,1.28,0,0,0-.64.72,1.55,1.55,0,0,0-.15.91,1.09,1.09,0,0,0,.39.64l0,0L76.16,104l-.07,0a2,2,0,0,1-.81-.8A2.31,2.31,0,0,1,75,102a3.55,3.55,0,0,1,.34-1.45,3.62,3.62,0,0,1,.85-1.23,2.35,2.35,0,0,1,1.11-.56,2.08,2.08,0,0,1,1.21.17l4.23,1.88-.64,1.44-.94-.42,0,0a2.45,2.45,0,0,1,.36.7,2.4,2.4,0,0,1,.08.8,2.42,2.42,0,0,1-.21.82A2.58,2.58,0,0,1,80.65,105.16Z" transform="translate(-53.8 -53.86)"/><path class="cls-2" d="M77.39,94.32a.87.87,0,0,1-1-.65A.91.91,0,0,1,77,92.61a.88.88,0,0,1,.65.11.84.84,0,0,1,.38.54.88.88,0,0,1-.12.67A.82.82,0,0,1,77.39,94.32Zm.94.79.84-1.34,5.7,3.57L84,98.68Z" transform="translate(-53.8 -53.86)"/><path class="cls-2" d="M79.14,89.57l1-1.25,7.24,5.6-1,1.25Z" transform="translate(-53.8 -53.86)"/><path class="cls-2" d="M89.08,91.66a.84.84,0,0,1-.65-.25.92.92,0,1,1,1.26-1.33.92.92,0,0,1-.61,1.58Z" transform="translate(-53.8 -53.86)"/><path class="cls-2" d="M92.52,88.12a2.89,2.89,0,0,1-1.63-.24,4.15,4.15,0,0,1-1.48-1.21h0a4,4,0,0,1-.85-1.7,2.88,2.88,0,0,1,.12-1.65,3.27,3.27,0,0,1,1.06-1.4,3.39,3.39,0,0,1,1.41-.7,2.7,2.7,0,0,1,1.36.07,2.53,2.53,0,0,1,1.09.7l0,0L92.47,83l0,0a1.5,1.5,0,0,0-.88-.36,1.39,1.39,0,0,0-1,.35,1.45,1.45,0,0,0-.51.75,1.75,1.75,0,0,0,0,1,3.12,3.12,0,0,0,.59,1h0a3,3,0,0,0,.91.8,1.68,1.68,0,0,0,.92.23,1.61,1.61,0,0,0,1.4-1.2,1.51,1.51,0,0,0-.16-1l0-.05,1.17-.93,0,0a2.55,2.55,0,0,1,.44,1.26,2.81,2.81,0,0,1-.24,1.33,3.24,3.24,0,0,1-1,1.19A3.32,3.32,0,0,1,92.52,88.12Z" transform="translate(-53.8 -53.86)"/><path class="cls-2" d="M99,83.48a2.88,2.88,0,0,1-1.57-.54,3.89,3.89,0,0,1-1.22-1.46h0a3.91,3.91,0,0,1-.51-1.84,2.86,2.86,0,0,1,.44-1.6,3.49,3.49,0,0,1,1.31-1.17,3.38,3.38,0,0,1,1.72-.43,2.86,2.86,0,0,1,1.57.54A4,4,0,0,1,102,78.43h0a4,4,0,0,1,.52,1.84,2.86,2.86,0,0,1-.44,1.6,3.45,3.45,0,0,1-1.32,1.17A3.4,3.4,0,0,1,99,83.48Zm1.77-2.2a1.57,1.57,0,0,0,.15-.93,3,3,0,0,0-.38-1.16h0a3.11,3.11,0,0,0-.73-1,1.61,1.61,0,0,0-.86-.4,1.47,1.47,0,0,0-.9.18,1.44,1.44,0,0,0-.64.63,1.67,1.67,0,0,0-.16.93,3.27,3.27,0,0,0,.38,1.16h0a3,3,0,0,0,.74,1,1.71,1.71,0,0,0,.86.41,1.62,1.62,0,0,0,.9-.18A1.46,1.46,0,0,0,100.81,81.28Z" transform="translate(-53.8 -53.86)"/><path class="cls-2" d="M103.7,74l1.52-.39.27,1h0a1.77,1.77,0,0,1,.46-1,2,2,0,0,1,1-.61,2.13,2.13,0,0,1,.86-.06,1.73,1.73,0,0,1,.73.29,1.94,1.94,0,0,1,.56.61h0a2.09,2.09,0,0,1,.27-.82,2.24,2.24,0,0,1,.59-.64,2.47,2.47,0,0,1,.82-.38,2.23,2.23,0,0,1,1.2,0,2,2,0,0,1,.94.57,2.42,2.42,0,0,1,.56,1.08l1.16,4.46-1.53.4-1.06-4.09a1.46,1.46,0,0,0-.54-.86,1.19,1.19,0,0,0-1-.11,1.37,1.37,0,0,0-.6.34,1.23,1.23,0,0,0-.32.58,1.56,1.56,0,0,0,0,.74l1,4-1.49.39-1.08-4.18a1.19,1.19,0,0,0-.53-.78,1.18,1.18,0,0,0-.93-.1,1.26,1.26,0,0,0-.61.34,1.43,1.43,0,0,0-.32.61,1.69,1.69,0,0,0,0,.74l1,4-1.53.4Z" transform="translate(-53.8 -53.86)"/><path class="cls-2" d="M123.3,70.8l.38.68-1.87,1.09-.49-.86ZM122,69.54l1.73,1.28-.44.63-1.87-1.12Zm1.1,1.58.82,0v2.18l-1-.06ZM124.14,69l-.24,2.19-.82,0V68.93Zm.86,3.76-1.73-1.29.44-.63L125.58,72Zm-1.32-1.26-.38-.69,1.87-1.07.49.84Z" transform="translate(-53.8 -53.86)"/><path class="cls-3" d="M117,133l-9.46-18.44,4.62-4.74,5.16-1.32,10.92,2.76,3.75,3.24,1.88,6.69-.12.08Zm-9-18.37,9.11,17.78,16.24-11.39-1.76-6.28-3.56-3.12-10.76-2.72-4.93,1.29Z" transform="translate(-53.8 -53.86)"/><path class="cls-3" d="M118.18,130l1.32-15.87,6.54-2.2-1.37,8.19-2.39,3.12-.68,3.42L121,126Zm1.55-15.6L118.51,129l2.45-3.54.52.53.59-3,2.39-3.1,1.24-7.55Z" transform="translate(-53.8 -53.86)"/></g></svg>