<svg id="Layer_1" data-name="Layer 1" xmlns="http://www.w3.org/2000/svg" viewBox="0 0 26.36 23.34"><defs><style>.cls-1{fill:none;stroke:#000;stroke-miterlimit:10;}</style></defs><title>favicon</title><path class="cls-1" d="M16.06,25,3.39,10.59l3.08-5.3L10.8,2.94H21.22L25.32,5l3.21,5.58-.09.1ZM3.86,10.54l12.2,13.9,12-13.9-3-5.24-3.91-2H10.88L6.75,5.57Z" transform="translate(-2.77 -2.44)"/><path class="cls-1" d="M16.41,22,14,7.46,19.37,4,20,11.66,18.56,15l.16,3.23L18,17.77ZM14.27,7.65l2.22,13.41,1.39-3.73.59.36-.14-2.8,1.44-3.32-.59-7.06Z" transform="translate(-2.77 -2.44)"/></svg>