<svg id="develop" xmlns="http://www.w3.org/2000/svg" viewBox="0 0 36.03 35.14"><defs><style>.cls-1,.cls-2{fill:none;stroke-miterlimit:10;}.cls-1{stroke:#000;}.cls-2{stroke:#fff;}</style></defs><title>iicdevelop</title><path class="cls-1" d="M63.56,29" transform="translate(-2.86 -4.86)"/><path class="cls-1" d="M70.92,22.31" transform="translate(-2.86 -4.86)"/><path class="cls-1" d="M68.49,22.94" transform="translate(-2.86 -4.86)"/><circle class="cls-2" cx="29.81" cy="6.51" r="5.73"/><line class="cls-2" x1="29.81" y1="3.25" x2="29.81" y2="6.93"/><path class="cls-2" d="M36.41,7.53l.82-.77" transform="translate(-2.86 -4.86)"/><path class="cls-2" d="M24.71,16.93c0-.29,0-.74,0-1.3v-7a1.38,1.38,0,0,0-1.35-1.4H4.71a1.37,1.37,0,0,0-1.35,1.4V38.1a1.37,1.37,0,0,0,1.35,1.4H23.33a1.38,1.38,0,0,0,1.35-1.4V34.57" transform="translate(-2.86 -4.86)"/><path class="cls-2" d="M26,17.15" transform="translate(-2.86 -4.86)"/><path class="cls-2" d="M21.92,32.81v2.72a.83.83,0,0,1-.83.83H6.69a.83.83,0,0,1-.83-.83V10.41a.83.83,0,0,1,.83-.83h14.4a.83.83,0,0,1,.83.83L22,14.78" transform="translate(-2.86 -4.86)"/><rect class="cls-2" x="4.57" y="11.7" width="4.85" height="5.72" rx="0.73"/><rect class="cls-2" x="4.57" y="7.16" width="12.91" height="3.51" rx="0.67"/><line class="cls-2" x1="4.83" y1="19.22" x2="10.15" y2="19.22"/><line class="cls-2" x1="4.83" y1="20.89" x2="10.25" y2="20.89"/><line class="cls-2" x1="4.83" y1="22.42" x2="10.25" y2="22.42"/><circle class="cls-2" cx="11.49" cy="32.94" r="0.27"/><path class="cls-2" d="M30.55,33.18c-.36,0-3.46-.11-3.49-.13s-3.88-1.93-3.93-1.93-4-2.11-4-2.11-.07-1.61.88-1.69a9.15,9.15,0,0,1,3.08.6,12.12,12.12,0,0,1,1.51.83c-.13-.11-5.15-5.52-6.72-7.11s-.15-2.51.57-2.39a1.39,1.39,0,0,1,.76.36,7.1,7.1,0,0,1,.7.59l4.25,4.49s-5.75-6-5.84-6.15A1.18,1.18,0,0,1,18.88,17a1.36,1.36,0,0,1,1.28.06c.16.11,2.13,2.19,3.69,3.85l.25.28c.93,1,1.65,1.75,1.66,1.75S24,21.07,23.93,21a2,2,0,0,1,.12-1.36,1.14,1.14,0,0,1,1-.48,1.19,1.19,0,0,1,.86.28s.35.38.78.84L28.28,22s-1.4-1.45-1.48-2.07,0-1.29.46-1.58a1.39,1.39,0,0,1,1.13-.09,2.9,2.9,0,0,1,1,.65c.24.24,6.07,6.44,6.25,6.67a1.38,1.38,0,0,1,.16,1.56,9.14,9.14,0,0,1-1.38,2S30.91,33.18,30.55,33.18Z" transform="translate(-2.86 -4.86)"/><path class="cls-2" d="M25.68,32.9" transform="translate(-2.86 -4.86)"/><path class="cls-2" d="M32.66,6.05V4.86" transform="translate(-2.86 -4.86)"/></svg>