<svg id="idea" xmlns="http://www.w3.org/2000/svg" viewBox="0 0 43.59 43.46"><defs><style>.cls-1{fill:none;stroke:#fff;stroke-miterlimit:10;}</style></defs><title>iicidea</title><path class="cls-1" d="M9.6,3.53V9.59H3.52V3.53ZM.47.5V12.63H12.64V.5Z" transform="translate(0.03 0)"/><path class="cls-1" d="M24.81,8.08v6.06H18.73V8.08Zm-9.13-3V17.18H27.85V5.05Z" transform="translate(0.03 0)"/><path class="cls-1" d="M9.6,21.72v6.07H3.52V21.72Zm-9.13-3V30.82H12.64V18.69Z" transform="translate(0.03 0)"/><path class="cls-1" d="M30.89,12.63v9.09H21.77v9.1H12.64V43H43.06V12.63ZM24.81,24.76h6.08v6.06H24.81Zm-3,15.16H15.68V33.86h6.09Zm9.12,0H24.81V33.86h6.08Zm9.13,0H33.93V33.86H40Zm0-9.1H33.93V24.76H40Zm-6.09-9.1V15.66H40v6.06Z" transform="translate(0.03 0)"/></svg>