<svg id="Layer_2" data-name="Layer 2" xmlns="http://www.w3.org/2000/svg" viewBox="0 0 35.3 31.16"><defs><style>.cls-1{fill:none;stroke:#000;stroke-miterlimit:10;}</style></defs><title>webclip</title><path class="cls-1" d="M33.61,44.48,16.43,25l4.18-7.18,5.87-3.19H40.6l5.56,2.79,4.35,7.57-.12.13ZM17.07,24.88,33.61,43.72,49.87,24.88l-4.07-7.1-5.3-2.71H26.58L21,18.14Z" transform="translate(-15.82 -14.08)"/><path class="cls-1" d="M32.67,41.73,29.4,22l7.28-4.69.86,10.38-2,4.53.22,4.38-1-.62Zm-2.9-19.45,3,18.17,1.88-5.05.8.49-.19-3.8,1.95-4.5L36.42,18Z" transform="translate(-15.82 -14.08)"/></svg>